<?xml version="1.0" encoding="UTF-8" standalone="no"?>
<!-- Created with Inkscape (http://www.inkscape.org/) -->

<svg
   xmlns:dc="http://purl.org/dc/elements/1.1/"
   xmlns:cc="http://creativecommons.org/ns#"
   xmlns:rdf="http://www.w3.org/1999/02/22-rdf-syntax-ns#"
   xmlns:svg="http://www.w3.org/2000/svg"
   xmlns="http://www.w3.org/2000/svg"
   xmlns:sodipodi="http://sodipodi.sourceforge.net/DTD/sodipodi-0.dtd"
   xmlns:inkscape="http://www.inkscape.org/namespaces/inkscape"
   width="200"
   height="50"
   viewBox="0 0 52.916666 13.229166"
   version="1.1"
   id="svg8"
   sodipodi:docname="redborder.svg"
   inkscape:export-filename="C:\Users\robin\Documents\vieropeenrij\images\redborder.png"
   inkscape:export-xdpi="96"
   inkscape:export-ydpi="96"
   inkscape:version="0.92.4 (5da689c313, 2019-01-14)">
  <defs
     id="defs2" />
  <sodipodi:namedview
     id="base"
     pagecolor="#ffffff"
     bordercolor="#666666"
     borderopacity="1.0"
     inkscape:pageopacity="0.0"
     inkscape:pageshadow="2"
     inkscape:zoom="4"
     inkscape:cx="107.98393"
     inkscape:cy="41.103339"
     inkscape:document-units="mm"
     inkscape:current-layer="layer1"
     showgrid="false"
     units="px"
     inkscape:window-width="1920"
     inkscape:window-height="1001"
     inkscape:window-x="2391"
     inkscape:window-y="-9"
     inkscape:window-maximized="1" />
  <metadata
     id="metadata5">
    <rdf:RDF>
      <cc:Work
         rdf:about="">
        <dc:format>image/svg+xml</dc:format>
        <dc:type
           rdf:resource="http://purl.org/dc/dcmitype/StillImage" />
        <dc:title></dc:title>
      </cc:Work>
    </rdf:RDF>
  </metadata>
  <g
     inkscape:label="Layer 1"
     inkscape:groupmode="layer"
     id="layer1"
     transform="translate(0,-283.77084)">
    <path
       style="opacity:1;fill:#ff8080;fill-opacity:1;stroke:none;stroke-width:0.37457472;stroke-miterlimit:4;stroke-dasharray:none;stroke-opacity:1"
       d="m 0.88108315,283.77084 c -0.4849746,0 -0.87539874,0.39042 -0.87539874,0.8754 v 11.47837 c 0,0.48497 0.39042414,0.8754 0.87539874,0.8754 H 12.359452 c 0.484975,0 0.875399,-0.39043 0.875399,-0.8754 v -11.47837 c 0,-0.48498 -0.390424,-0.8754 -0.875399,-0.8754 z m 1.03301185,1.19063 h 9.412345 c 0.397679,0 0.717786,0.3201 0.717786,0.71778 v 9.41235 c 0,0.39768 -0.320107,0.71778 -0.717786,0.71778 H 1.914095 c -0.3976791,0 -0.7177856,-0.3201 -0.7177856,-0.71778 v -9.41235 c 0,-0.39768 0.3201065,-0.71778 0.7177856,-0.71778 z"
       id="rect850"
       inkscape:connector-curvature="0" />
    <path
       style="opacity:1;fill:#ff5555;fill-opacity:1;stroke:none;stroke-width:1.39033985;stroke-miterlimit:4;stroke-dasharray:none;stroke-opacity:1"
       d="M 59.144531 0 C 56.848729 0 55 1.8487294 55 4.1445312 L 55 45.855469 C 55 48.151271 56.848729 50 59.144531 50 L 195.85547 50 C 198.15127 50 200 48.151271 200 45.855469 L 200 4.1445312 C 200 1.8487294 198.15127 0 195.85547 0 L 59.144531 0 z M 63.314453 5 L 191.68555 5 C 193.52219 5 195 6.4778116 195 8.3144531 L 195 41.685547 C 195 43.522188 193.52219 45 191.68555 45 L 63.314453 45 C 61.477812 45 60 43.522188 60 41.685547 L 60 8.3144531 C 60 6.4778116 61.477812 5 63.314453 5 z "
       transform="matrix(0.26458333,0,0,0.26458333,0,283.77084)"
       id="rect859" />
  </g>
</svg>
