<?xml version="1.0" encoding="UTF-8" standalone="no"?>
<!-- Created with Inkscape (http://www.inkscape.org/) -->

<svg
   xmlns:dc="http://purl.org/dc/elements/1.1/"
   xmlns:cc="http://creativecommons.org/ns#"
   xmlns:rdf="http://www.w3.org/1999/02/22-rdf-syntax-ns#"
   xmlns:svg="http://www.w3.org/2000/svg"
   xmlns="http://www.w3.org/2000/svg"
   xmlns:sodipodi="http://sodipodi.sourceforge.net/DTD/sodipodi-0.dtd"
   xmlns:inkscape="http://www.inkscape.org/namespaces/inkscape"
   width="450"
   height="100"
   viewBox="0 0 119.0625 26.458332"
   version="1.1"
   id="svg8"
   sodipodi:docname="yellowborder.svg"
   inkscape:export-filename="C:\Users\robin\Documents\vieropeenrij\images\redborder.png"
   inkscape:export-xdpi="96"
   inkscape:export-ydpi="96"
   inkscape:version="0.92.4 (5da689c313, 2019-01-14)">
  <defs
     id="defs2" />
  <sodipodi:namedview
     id="base"
     pagecolor="#ffffff"
     bordercolor="#666666"
     borderopacity="1.0"
     inkscape:pageopacity="0.0"
     inkscape:pageshadow="2"
     inkscape:zoom="2"
     inkscape:cx="182.31509"
     inkscape:cy="31.314431"
     inkscape:document-units="mm"
     inkscape:current-layer="layer1"
     showgrid="false"
     units="px"
     inkscape:window-width="1920"
     inkscape:window-height="1001"
     inkscape:window-x="2391"
     inkscape:window-y="-9"
     inkscape:window-maximized="1" />
  <metadata
     id="metadata5">
    <rdf:RDF>
      <cc:Work
         rdf:about="">
        <dc:format>image/svg+xml</dc:format>
        <dc:type
           rdf:resource="http://purl.org/dc/dcmitype/StillImage" />
        <dc:title></dc:title>
      </cc:Work>
    </rdf:RDF>
  </metadata>
  <g
     inkscape:label="Layer 1"
     inkscape:groupmode="layer"
     id="layer1"
     transform="translate(0,-270.54167)">
    <path
       style="opacity:1;fill:#ffd42a;fill-opacity:1;stroke:none;stroke-width:1.40762556;stroke-miterlimit:4;stroke-dasharray:none;stroke-opacity:1"
       d="M 121.23633 0 C 113.45605 0 107.19336 6.262687 107.19336 14.042969 L 107.19336 85.957031 C 107.19336 93.737313 113.45605 100 121.23633 100 L 435.95703 100 C 443.73731 100 450 93.737313 450 85.957031 L 450 14.042969 C 450 6.262687 443.73731 0 435.95703 0 L 121.23633 0 z M 125.23633 5 L 431.95703 5 C 438.95928 5 444.5957 10.636419 444.5957 17.638672 L 444.5957 82.361328 C 444.5957 89.363581 438.95928 95 431.95703 95 L 125.23633 95 C 118.23407 95 112.5957 89.363581 112.5957 82.361328 L 112.5957 17.638672 C 112.5957 10.636419 118.23407 5 125.23633 5 z "
       transform="matrix(0.26458333,0,0,0.26458333,0,270.54167)"
       id="rect891"
       inkscape:export-xdpi="96"
       inkscape:export-ydpi="96" />
    <path
       style="opacity:1;fill:#ffdd55;fill-opacity:1;stroke:none;stroke-width:1.42327261;stroke-miterlimit:4;stroke-dasharray:none;stroke-opacity:1"
       d="M 14.136719 0 C 6.3054327 0 0 6.3054327 0 14.136719 L 0 85.863281 C -1.1842379e-15 93.694567 6.3054327 100 14.136719 100 L 85.863281 100 C 93.694567 100 100 93.694567 100 85.863281 L 100 14.136719 C 100 6.3054327 93.694567 0 85.863281 0 L 14.136719 0 z M 17.722656 5 L 82.277344 5 C 89.325501 5 95 10.674499 95 17.722656 L 95 82.277344 C 95 89.325501 89.325501 95 82.277344 95 L 17.722656 95 C 10.674499 95 5 89.325501 5 82.277344 L 5 17.722656 C 5 10.674499 10.674499 5 17.722656 5 z "
       transform="matrix(0.26458333,0,0,0.26458333,0,270.54167)"
       id="rect898"
       inkscape:export-xdpi="96"
       inkscape:export-ydpi="96" />
  </g>
</svg>
